/* XPM */
static char *_9c0caae138f4b1d99a38aaaee034526VDh3yRGDQqhWQWtR[] = {
/* columns rows colors chars-per-pixel */
"50 50 217 2 ",
"   c black",
".  c #101010",
"X  c #3D1A1A",
"o  c #3F3600",
"O  c #2E1F20",
"+  c #222222",
"@  c #2C2929",
"#  c #372A25",
"$  c #323232",
"%  c #3B3B3A",
"&  c #59120D",
"*  c #4B1515",
"=  c #5D1413",
"-  c #6F0C0B",
";  c #502A03",
":  c #523D02",
">  c #662506",
",  c #642B07",
"<  c #693A0B",
"1  c #4F3C2B",
"2  c #793525",
"3  c #004F00",
"4  c #015100",
"5  c #025D00",
"6  c #175712",
"7  c #2A5501",
"8  c #385300",
"9  c DarkGreen",
"0  c #0E6400",
"q  c #006B00",
"w  c #1B6500",
"e  c #017700",
"r  c #1E6C13",
"t  c #326404",
"y  c #2D6712",
"u  c #474700",
"i  c #5D5A0A",
"p  c #634A00",
"a  c #735500",
"s  c #684D15",
"d  c #486401",
"f  c #597702",
"g  c #587F1E",
"h  c #767301",
"j  c #594C3C",
"k  c #675134",
"l  c #4C762E",
"z  c #696323",
"x  c #665841",
"c  c #6F6F4A",
"v  c #6A5C60",
"b  c gray50",
"n  c #8C1908",
"m  c #A81502",
"M  c #BC1900",
"N  c #922E06",
"B  c #A42C00",
"V  c #BC2F09",
"C  c #B73626",
"Z  c #C31A00",
"A  c #C41A00",
"S  c #C91B00",
"D  c #CD1C00",
"F  c #D41D00",
"G  c #DC1F00",
"H  c #CB2B00",
"J  c #DB2506",
"K  c #DA2D16",
"L  c #E32001",
"P  c #EA2200",
"I  c #FE3300",
"U  c #F03A00",
"Y  c #ED3010",
"T  c #8B4A06",
"R  c #9B5A00",
"E  c #B74800",
"W  c #B25A13",
"Q  c #8D6B00",
"!  c #B36F08",
"~  c #BA7E13",
"^  c #855C2A",
"/  c #B75732",
"(  c #95692B",
")  c #9C742E",
"_  c #8C6C38",
"`  c #947436",
"'  c #C67500",
"]  c #D47E00",
"[  c #CB5033",
"{  c #CA7839",
"}  c #A45843",
"|  c #947347",
" . c #B8654A",
".. c #BE6E59",
"X. c #8E796A",
"o. c #CC5848",
"O. c #D06D52",
"+. c #D87B63",
"@. c #5A811E",
"#. c #598033",
"$. c #628420",
"%. c #74972A",
"&. c #6D824E",
"*. c #B28404",
"=. c #848F2A",
"-. c #AA833F",
";. c #8BA732",
":. c #8EA933",
">. c #97AF35",
",. c #A3B93A",
"<. c #D68D08",
"1. c #C78813",
"2. c #D5981A",
"3. c #E28700",
"4. c #E59B09",
"5. c #F59401",
"6. c #FF9900",
"7. c #FC9A04",
"8. c #E4A603",
"9. c #ECAC00",
"0. c #FFA20D",
"q. c #EDB908",
"w. c #FEA714",
"e. c #D48F2F",
"r. c #D3A92A",
"t. c #E7B53A",
"y. c #ABC33E",
"u. c #F4C40A",
"i. c #878D59",
"p. c #B1894F",
"a. c #95AE4C",
"s. c #A0B855",
"d. c #8F9767",
"f. c #AB8F6D",
"g. c #AAA16B",
"h. c #A3A377",
"j. c #B9A77C",
"k. c #C79946",
"l. c #D29251",
"z. c #E49B56",
"x. c #D8A449",
"c. c #CFA65C",
"v. c #E3A948",
"b. c #E6AA57",
"n. c #D2926F",
"m. c #CC9D73",
"M. c #C5A871",
"N. c #CCAA77",
"B. c #D9B279",
"V. c #EFA468",
"C. c #E4B876",
"Z. c #AEC840",
"A. c #B3CC4C",
"S. c #B3CB55",
"D. c #EBC252",
"F. c #E7C17B",
"G. c #8C8B8C",
"H. c #99998B",
"J. c #A09E81",
"K. c #AEA788",
"L. c #B8A986",
"P. c #BAB095",
"I. c #9F9FA0",
"U. c #A4A4A4",
"Y. c #BBBBBB",
"T. c #CE9F88",
"R. c #C7AA84",
"E. c #D8A986",
"W. c #C9B38C",
"Q. c #DBBB84",
"!. c #D8B888",
"~. c #D8BA97",
"^. c #E4BC86",
"/. c #E0B893",
"(. c #C9B0A8",
"). c #D9BDA4",
"_. c #D8C298",
"`. c #DDC49C",
"'. c #E4C38E",
"]. c #E9C68D",
"[. c #EDCB93",
"{. c #E4C598",
"}. c #EECE9A",
"|. c #F0CF9E",
" X c #EED09E",
".X c #DBC6A5",
"XX c #DACDB3",
"oX c #DDD2B0",
"OX c #E4CCA1",
"+X c #EBCEA3",
"@X c #F1CFA2",
"#X c #EED2A4",
"$X c #E5D0AC",
"%X c #EFD5A9",
"&X c #F1D1A2",
"*X c #F0D6AB",
"=X c #F2D8AF",
"-X c #E5CFB3",
";X c #EAD6B7",
":X c #F1DAB4",
">X c #F2DEBB",
",X c #F4E0BE",
"<X c #9CB2CC",
"1X c #D4CDC6",
"2X c #DDD7CE",
"3X c #D3D3D1",
"4X c #EAD8C2",
"5X c #F4DFC0",
"6X c #EEE0CA",
"7X c #F5E1C3",
"8X c #F4E4CA",
"9X c #F5E8CF",
"0X c #ECE3D5",
"qX c #F3E6D0",
"wX c #F7E9D3",
"eX c #E9ECF0",
"rX c #F5F6F6",
/* pixels */
"[.[.[.[.[.[.[.[.].[.[.[.].[.[.].[.[.[.[.[.}.[.[.[.[.].[.].[.[.[.[.].[.[.[.[.].[.[.[.[.[.[.[.[.[.[.[.",
"[.[.].[.[.[.].[.[.[.[.[.[.[.[.[.[.[.[.[.[.[.[.[.[.[.[.[.[.[.[.[.[.[.].[.[.].[.[.[.[.].[.[.].[.[.[.[.",
"[.[.}.[.}.[.[.[.[.[.[.[.[.].[.[.[.[.[.].[.[.[.[.[.[.[.[.[.[.[.].].[.[.[.[.[.[.[.[.[.[.[.[.[.].[.[.[.",
"|.|.|.|.|.|.|.|.|.}.|.}.}.[.}.[.[.[.[.[.^.c.e.x.m.^.[.[.].[.[.[.[.[.[.[.[.[.[.[.[.[.[.[.|.[.}.|.|.}.",
"|.|.|.|.|.|.|.|.|.|.|.|. X|.}. X X X|.[.k.` % % ) k.{.|.}.|.|.|.}.[. X}.|. X|.|.|.|.|.|.@X@X|.|.|.|.",
"|.|.|.|.|.}.}.}.}.}.}.[.}.[.}.}. X X|.m._ $ $ $ $ ( M.|.|.|.|.|.|.|. X|.|.|.|.|.|.|.|.|.|.|.|.|.|.|.",
"}.[.[.[.[.[.[.[.[.[.[.[.].'.Q.[.[.[.[.-.% $ $ $ $ $ l.[.}.|.[.|.|.|. X X|.|. X|.|.|.|.|.|.|.|.|.|.|.",
"[.}.}.}.[.}.[.[.}.}.[. XB.r.e.p.].}.Q._ $ $ $ $ $ $ ( ].[.[.[.[.[.[.[.[.[.[.[.}.}.}.|.[.|.|.|.[.|.}.",
"&X&X&X&X&X&X&X&X&X&X&X&Xp.j $ j p.!.M.j % $ $ $ $ $ k p.^.[.[.[.[.[.[.[.[.[.[.[.[.[.[.[.[.[.[.[.[.[.",
"&X&X#X&X&X&X|.|.@X@X&X&X) $ $ $ $ ` _ G.% $ $ $ $ $ + k ( l.!.}.}.}.}.}.}.}.}.}. X X X|.|.|.|. X|.|.",
"}.|. X X&X&X&X&X@X@X X#X_ $ $ $ @ b Y.H.$ $ $ $ $ + + + + @ ^ ~.&X|.&X X&X&X&X X&X&X&X&X@X@X@X|.@X@X",
"[.[.[.[.}.}.}.}.|.|. X Xp.$ $ $ $ G.Y.I.Y.@ # * X + + + + + # !.|. X X X X|. X X&X&X|.&X&X|.@X@X@X@X",
"[.[.[.[.}.[.[.[.|.}.}.}.N.k $ $ $ b G.* = - n = = = O + + O 1 '.}.[.[.[.}.[.[.[.[.}.|.|.|.@X&X&X@X@X",
"|.}. X&X X&X*X*X&X*X%X%X#X| $ $ $ + = n b v n m N : 8 & = 1 N.[.[.[.}.}.[.[.[.}.}.[.|.}.[.}.[. X|.}.",
"*X*X*X=X=X=X*X*X*X*X*X*X=X`._ $ + X * G.rXrXo.I I W 9 8 - n !.#X#X X X X X X X}. Xn.n.[. X[. X}.[.[.",
"*X*X#X#X=X#X*X&X&X&X*X%X%X%X`.p.s .   Y.eX<X(.I I U 5 w 2 - } #X X#X X#X*X*X*X!.{.Y m.&X#X&X&X#X&X*X",
" X X|. X X}.}. X|.|.[. X}. X#X#XL..   U.eX<XL.W G I t e !.Q.f.}.}.}.}.[.|.|./.J [ G ~.%X%X%X%X%X*X*X",
" X X}.[.}.}.[.}.[.}.|.[.[.|.[.[.}.x   + 1X1X2.! H P w 9 g.}.[.}.[.}.}.|.[.[.+.D P M [ %X#X#X#X#X X X",
"%X%X#X#X X X}.|. X}.[.[. X[.}.}.}.x.R ! ] 5.7.' V J 9 9 i.}.}.}.}.}.}.}.|.^.L S L D o.}.}. X[.}.}.}.",
"=X=X=X=X=X=X*X*X=X*X=X=X*X&X X XQ.w.6.6.6.6.3.W E E 9 9 &.&X#X=X=X=X*X=X*Xn.S P Z G m.[.}.[.}.}.}.[.",
"=X=X=X=X=X=X=X=X=X=X=X=X=X=X=X%XF.0.6.7.3.' W [ E T 9 9 y *X=X=X=X=X=X=XOXa D G F M O.#X#X X X X|. X",
"=X=X=X=X=X=X=X=X=X=X=X=X=X=X=X=X_.w.6.3.{ N./ { T q 9 9 q d.#X=X#X=X=X=Xi.7 H A G F n.=X=X=X*X=X*X=X",
"=X=X=X*X%X=X*X%X%X&X#X#X#X&X#X&X#Xx.7.e.{.!.! R t q q 9 9 9 d. X X&X#XW.q q N G A G E. X X X&X X X#X",
" X X X#X%X&X&X%X*X*X=X%X#X X X X}.[.!.B.}.j.s ;.@.9 9 9 9 9 q h.:X:X:X&.q 9 B A L M _. X}.}. X}.}.}.",
":X:X>X:X>X:X:X>X>X:X:X:X:X:X%X#X#X X#X XR.u > ,.y.;.w 9 9 9 9 q K.:XL.q 9 5 p G S D {. X X}. X X X X",
":X:X:X:X#Xb.2.x.{.:X:X:X>X:X>X>X>X:X:XL.q : > =.y.Z.:.9 9 9 q 9 q h.r 9 5 9 V G S n.=X=X=X=X:X:X:X:X",
":X:X:X:Xx.{.:X}.v.+X:X:X,X:X:X:X:X>Xh.e 9 z > Q y.Z.Z.$.5 9 9 9 9 e 9 9 9 5 T Z M ).:X:X,X=X:X:X:X:X",
":X>X:X[.C.,X=X,X].C. XF.D.D.B.~.`.i.q 9 l ,.< 2.r.Z.Z.>.5 4 9 9 9 9 9 9 5 9 B Z M !.%X%X%X%X*X*X*X=X",
":X:X=X].B.%X#X&XF.b.v.u.u.u.q.f e q q q a.y.r.T 1.y.Z.Z.y 5 3 9 9 9 9 9 9 4 N m  .|. X X X X X X X X",
"#X X X}.t.'.#X&X XC.8.9.9.9.8.h 9 9 9 #.A.y.r.1.1.*.,.Z.g 9 3 4 5 9 5 5 4 4 B C ).&X%X%X%X%X#X%X%X*X",
"=X=X:X:X+XB.+X>X>X:Xt.q.9.9.8.d 9 9 9 s.Z.Z.y.r.~ , s ,.%.9 l c 4 4 4 4 3 u C ~.>X>X,X,X,X,X>X,X,X,X",
">X>X>X>X>X>X>X>X>X>X+Xt.u.8.*.9 q 9 l S.y.Z.Z.y.s > > > i 7 9 ).c 4 4 4 4 | ~.%X%X%X&X%X=X%X:X:X>X>X",
">X>X>X>X>X>X>X>X>X>X>X:X'.c.y 9 9 9 a.Z.Z.Z.y.y.,.s > > > > > f.}.j.i.i.L.#X#X&X#X%X&X&X+X*X#X#X%X%X",
"=X:X:X:X=X;X:X:X:X:X=X&X%X#X&XW.h.L.S.Z.Z.Z.Z.Z.y.s.=., > > > ^ +XE.o./ +.K ..n.O.+.{.~.OX@X#X#X#X X",
"#X#X#X#X#X#X#X%X#X#X#X#X#X#X#X%X=X_.S.Z.Z.Z.Z.Z.Z.Z.Z.:.8 8 u p [ A F G D F G D F J L K /.=X%X%X%X%X",
"#X#X#X#X%X=X=X:X:X:X>X>X5X5X7X7X7XoXA.Z.Z.Z.Z.Z.Z.Z.Z.g 9 5 9 y d a S G S D G L S Z S o.E.5X7X7X7X,X",
",X,X,X,X,X7X7X7X7X5X7X7X7X7X7X7X7X.XA.Z.Z.Z.Z.Z.Z.Z.;.5 9 9 9 q 4 5 S F L D Z F L L F +.;X7X7X7X7X7X",
"7X7X7X7X6X7X7X8X5X8X7X7X>X>X:X:X=XW.%.Z.Z.Z.y.Z.Z.>.9 9 9 9 9 9 3 9 w i D G G D C n.).>X>X>X>X>X,X>X",
"7X,X7X7X7X7X>X>X>X:X:X%X:X=X=X=X=XOXe g >.y.y.>.$.q 9 9 9 9 9 9 5 4 4 p C ..T.).>X;X>X:X=X=X%X=X=X%X",
">X>X:X:X:X=X=X=X=X=X%X=X%X=X=X:X>X7X&.q 9 9 9 9 9 9 9 9 9 9 9 5 4 6 h.XX8X5X5XqX5XqX8X8X8X7X7X>X:X:X",
":X=X:X:X=X=X=X=X=X=X:X:X>X5X8X8X8X8XP.q 9 5 6 9 9 9 q q 9 9 q K.XX6X8X8X8X8X8X8X5XqX8X8X8X8X8X8X8X7X",
"7X8X5X8X7X8X7X8X5X8X8X8X8X5X8X8X8X5XXX` d Q J.7X-XXXXXd.0 0 o K.8X8X8X8X8X8X8X8XqX8X8X8X8X8X8X8X8X8X",
"7X7X7X5X5X5X5X5X5X>X>X>X>X5X>X>X>X5X>XC.7.5.).:X>X>X:X$Xx ; ; ~.:X:X:X:X:X>X;X>X>X>X>X>X>X>X>X>X,X4X",
":X:X:X:X:X:X:X:X:X:X>X:X:X`.^.Q.).%X;XQ.6.6.~.>X>X>X>X>XoXf., ~.;X:X:X:X:X:X:X:X:X:X:X:X=X:X:X:X:X:X",
":X:X=X:X:X:X:X:X:X:X;X;X0Xr.4.<.1.~ ~ ' 5.6.z.z.~.0XwXwXqX-X; L.7X8X7X5X5X>X>X>X:X>X:X>X:X:X:X>X:X:X",
"=X=X:X=X:X:X:X:X:X>X5X0XrX4XV.z.6.7.w.w.5.5.6.6.l.0XqXwXwXwXX.d.wXwXwXwXwXwXwXwXwXwXwX9XwXwXwXwX9XwX",
":X,X>X,X7X7X8X9XwXwXwX2X3X3XrX).3.3.<.n.W.~.~.R..X4XqXwXwXwX(.< 0XwXwXwXwXwXwXwXwXwXwXwXwXwXwXwXwXwX",
"8X8X7X7X7X7X7X7X7X7X7X,X7X2X1XT.{ m.=X5X7X8X8X8X7XwX8X8XwX8X5XX.4XwXwXwXwXwXwXwXwXwXwXwXwXwXwXwXwXwX",
"7X,X7X7X,X7X,X7X7X7X7X7X7X,X7X7X>X7X,X,X7X7X,X,X7X,X7X,X7X7X7X,X7X7X,X7X7X,X7X7X7X7X7X7X7X7X7X7X7X8X",
",X,X,X,X7X,X7X7X7X7X7X7X7X7X7X8X8X7X7X8X8X9X9X9XwXwXwXwXwXwXwXwXwX9X9X9X9X8X8X8X8X8X8X8X8X8X7X8X7X8X"
};
