/* XPM */
static char *_fb4a8fa215d4142db16b6ff9c18e3d1lny2LsA9arzT2FEB[] = {
/* columns rows colors chars-per-pixel */
"50 50 217 2 ",
"   c black",
".  c #111111",
"X  c #2D1F1F",
"o  c #3D1A1A",
"O  c #3F3500",
"+  c #232323",
"@  c #2C2A2A",
"#  c #362925",
"$  c #333333",
"%  c #3B3B3A",
"&  c #59120D",
"*  c #4B1515",
"=  c #5D1414",
"-  c #6F0D0A",
";  c #502A04",
":  c #523D03",
">  c #662506",
",  c #642B08",
"<  c #693B0A",
"1  c #4F3C2B",
"2  c #793425",
"3  c #004F00",
"4  c #005200",
"5  c #015D01",
"6  c #185712",
"7  c #2A5502",
"8  c #385302",
"9  c #006401",
"0  c #0E6401",
"q  c #006B01",
"w  c #1A6602",
"e  c #017701",
"r  c #1D6C13",
"t  c #326405",
"y  c #2D6711",
"u  c #474702",
"i  c #5D5A0A",
"p  c #634A01",
"a  c #735502",
"s  c #694D15",
"d  c #496402",
"f  c #597703",
"g  c #587F1D",
"h  c #767302",
"j  c #594C3C",
"k  c #675134",
"l  c #4D762E",
"z  c #696324",
"x  c #665841",
"c  c #6F6F4A",
"v  c #6A5C60",
"b  c #7F7F7F",
"n  c #8C1909",
"m  c #A81603",
"M  c #BC1600",
"N  c #922E06",
"B  c #A42C01",
"V  c #BC2F09",
"C  c #B73626",
"Z  c #C31700",
"A  c #C91700",
"S  c #C41900",
"D  c #CD1A00",
"F  c #D41B00",
"G  c #DC1B01",
"H  c #E31E01",
"J  c #EA1D01",
"K  c #CB2B01",
"L  c #DB2506",
"P  c #DA2D17",
"I  c #FE3300",
"U  c #F03A01",
"Y  c #ED3010",
"T  c #8B4A06",
"R  c #9B5A02",
"E  c #B74800",
"W  c #B25A14",
"Q  c #8D6B01",
"!  c #B36F08",
"~  c #BA7E13",
"^  c #855C2A",
"/  c #B75732",
"(  c #95692B",
")  c #9C742E",
"_  c #8C6C38",
"`  c #947436",
"'  c #C67500",
"]  c #D47E00",
"[  c #CB5033",
"{  c #CA7839",
"}  c #A45843",
"|  c #947347",
" . c #B8654A",
".. c #BE6E59",
"X. c #8E796A",
"o. c #CC5848",
"O. c #D06D52",
"+. c #D87B63",
"@. c #5A811D",
"#. c #598034",
"$. c #618420",
"%. c #74972A",
"&. c #6E824E",
"*. c #B28404",
"=. c #848F2A",
"-. c #AA833F",
";. c #8BA732",
":. c #8EA933",
">. c #97AF36",
",. c #A3B93A",
"<. c #D68D08",
"1. c #C78812",
"2. c #D5981B",
"3. c #E28700",
"4. c #E59B09",
"5. c #F59401",
"6. c #FF9900",
"7. c #FC9A05",
"8. c #E4A604",
"9. c #ECAC00",
"0. c #FFA20C",
"q. c #EDB909",
"w. c #FEA714",
"e. c #D48F2E",
"r. c #D3A92B",
"t. c #E7B53A",
"y. c #ABC33E",
"u. c #F4C40A",
"i. c #878D59",
"p. c #B1894F",
"a. c #95AE4C",
"s. c #A0B855",
"d. c #8F9767",
"f. c #AB8F6D",
"g. c #AAA16B",
"h. c #A3A377",
"j. c #B9A77C",
"k. c #C79947",
"l. c #D29251",
"z. c #E49B56",
"x. c #D8A449",
"c. c #CFA65C",
"v. c #E3A949",
"b. c #E6AA57",
"n. c #D2926F",
"m. c #CC9D73",
"M. c #C5A871",
"N. c #CCAA77",
"B. c #D9B279",
"V. c #EFA468",
"C. c #E4B876",
"Z. c #AEC840",
"A. c #B3CC4C",
"S. c #B3CB55",
"D. c #EBC252",
"F. c #E7C17B",
"G. c #8C8B8C",
"H. c #99998B",
"J. c #A09E81",
"K. c #AEA788",
"L. c #B8A986",
"P. c #BAB095",
"I. c #9F9FA0",
"U. c #A4A4A4",
"Y. c #BBBBBB",
"T. c #CE9F88",
"R. c #C7AA84",
"E. c #D8A986",
"W. c #C9B38C",
"Q. c #DBBB84",
"!. c #D8B888",
"~. c #D8BA97",
"^. c #E4BC86",
"/. c #E0B893",
"(. c #C9B0A8",
"). c #D9BDA4",
"_. c #D8C298",
"`. c #DDC49C",
"'. c #E4C38E",
"]. c #E9C68D",
"[. c #EDCB93",
"{. c #E4C598",
"}. c #EECE9A",
"|. c #F0CF9E",
" X c #EED09E",
".X c #DBC6A5",
"XX c #DACDB3",
"oX c #DDD2B0",
"OX c #E4CCA1",
"+X c #EBCEA3",
"@X c #F1CFA2",
"#X c #EED2A4",
"$X c #E5D0AC",
"%X c #EFD5A9",
"&X c #F1D1A2",
"*X c #F0D6AB",
"=X c #F2D8AF",
"-X c #E5CFB3",
";X c #EAD6B7",
":X c #F1DAB4",
">X c #F2DEBB",
",X c #F4E0BE",
"<X c #9CB2CC",
"1X c #D4CDC6",
"2X c #DDD7CE",
"3X c #D3D3D1",
"4X c #EAD8C2",
"5X c #F4DFC0",
"6X c #EEE0CA",
"7X c #F5E1C3",
"8X c #F4E4CA",
"9X c #F5E8CF",
"0X c #ECE3D5",
"qX c #F3E6D0",
"wX c #F7E9D3",
"eX c #E9ECF0",
"rX c #F5F6F6",
/* pixels */
"[.[.[.[.[.[.[.[.[.[.[.].[.[.[.[.].[.[.[.[.].[.].[.[.[.[.}.[.[.[.[.[.].[.[.].[.[.[.].[.[.[.[.[.[.[.[.",
"[.[.[.[.].[.[.].[.[.[.[.].[.[.].[.[.[.[.[.[.[.[.[.[.[.[.[.[.[.[.[.[.[.[.[.[.[.[.[.[.[.].[.[.[.].[.[.",
"[.[.[.].[.[.[.[.[.[.[.[.[.[.[.[.[.].].[.[.[.[.[.[.[.[.[.[.[.].[.[.[.[.[.].[.[.[.[.[.[.[.[.}.[.}.[.[.",
"}.|.|.}.[.|.[.[.[.[.[.[.[.[.[.[.[.[.[.[.[.].[.[.^.m.x.e.c.^.[.[.[.[.[.}.[.}.}.|.}.|.|.|.|.|.|.|.|.|.",
"|.|.|.|.@X@X|.|.|.|.|.|. X|.}. X[.}.|.|.|.}.|.{.k.) % % ` k.[.|. X X X}.|. X|.|.|.|.|.|.|.|.|.|.|.|.",
"|.|.|.|.|.|.|.|.|.|.|.|.|.|.|. X|.|.|.|.|.|.|.M.( $ $ $ $ _ m.|. X X}.}.[.}.[.}.}.}.}.}.}.|.|.|.|.|.",
"|.|.|.|.|.|.|.|.|.|.|. X|.|. X X|.|.|.[.|.}.[.l.$ $ $ $ $ % -.[.[.[.[.Q.'.].[.[.[.[.[.[.[.[.[.[.[.}.",
"}.|.[.|.|.|.[.|.}.}.}.[.[.[.[.[.[.[.[.[.[.[.].( $ $ $ $ $ $ _ Q.}.].p.e.r.B. X[.}.}.[.[.}.[.}.}.}.[.",
"[.[.[.[.[.[.[.[.[.[.[.[.[.[.[.[.[.[.[.[.[.^.p.k $ $ $ $ $ % j M.!.p.j $ j p.&X&X&X&X&X&X&X&X&X&X&X&X",
"|.|. X|.|.|.|. X X X}.}.}.}.}.}.}.}.}.!.l.( k + $ $ $ $ $ % G._ ` $ $ $ $ ) &X&X@X@X|.|.&X&X&X#X&X&X",
"@X@X|.@X@X@X&X&X&X&X X&X&X&X X&X|.&X~.^ @ + + + + $ $ $ $ $ H.Y.b @ $ $ $ _ #X X@X@X&X&X&X&X X X|.}.",
"@X@X@X@X|.&X&X|.&X&X X X|. X X X X|.!.# + + + + + o * # @ Y.I.Y.G.$ $ $ $ p. X X|.|.}.}.}.}.[.[.[.[.",
"@X@X&X&X@X|.|.|.}.[.[.[.[.}.[.[.[.}.'.1 X + + X = = = n - = * G.b $ $ $ k N.}.}.}.|.[.[.[.}.[.[.[.[.",
"}.|. X[.}.[.}.|.[.}.}.[.[.[.}.}.[.[.[.N.1 = & 8 : N m n v b n = + $ $ $ | #X%X%X*X&X*X*X&X X&X X}.|.",
"[.[.}. X[. X[.n.n. X}. X X X X X X#X#X!.n - 8 9 W I I o.rXrXG.* o + $ _ `.=X*X*X*X*X*X*X=X=X=X*X*X*X",
"*X&X#X&X&X#X&Xm.Y {.!.*X*X*X#X X#X X#X} - 2 w 5 U I I (.<XeXY.  . s p.`.%X%X%X*X&X&X&X*X#X=X#X#X*X*X",
"*X*X%X%X%X%X%X~.G [ L /.|.|.[.}.}.}.}.f.Q.!.e t I G W L.<XeXU.  . L.#X#X X}. X[.|.|. X}.}. X X|. X X",
" X X#X#X#X#X%X[ M J D +.[.[.|.}.}.[.}.[.}.g.9 w J K ! 2.1X1X+   x }.[.[.|.[.[.|.}.[.}.[.}.}.[.}. X X",
"}.}.}.[. X}.}.o.D H A H ^.|.}.}.}.}.}.}.}.i.9 9 L V ' 7.5.] ! R x.}.}.}.[. X[.[.}. X|.}. X X#X#X%X%X",
"[.}.}.}.[.}.[.m.G Z J A n.*X=X*X=X=X=X#X&X&.9 9 E E W 3.6.6.6.6.w.Q. X X&X*X=X=X*X=X*X*X=X=X=X=X=X=X",
" X|. X X X#X#XO.M F G D a OX=X=X=X=X=X=X*Xy 9 9 T E [ W ' 3.7.6.0.F.%X=X=X=X=X=X=X=X=X=X=X=X=X=X=X=X",
"=X*X=X*X=X=X=Xn.F G S K 7 i.=X=X=X#X=X#Xd.q 9 9 q T { / N.{ 3.6.w._.=X=X=X=X=X=X=X=X=X=X=X=X=X=X=X=X",
"#X X X&X X X XE.G S G N q q W.#X&X X Xd.9 9 9 q q t R ! !.{.e.7.x.#X&X#X&X#X#X#X&X%X%X*X=X%X*X=X=X=X",
"}.}.}. X}.}. X_.M H S B 9 q &.:X:X:Xh.q 9 9 9 9 9 @.;.s j.}.B.!.[.}. X X X#X%X=X*X*X%X&X&X%X#X X X X",
" X X X X}. X X{.D A G p 5 9 q L.:XK.q 9 9 9 9 w ;.y.,.> u R. X#X X#X#X%X:X:X:X:X:X>X>X:X:X>X:X>X:X:X",
":X:X:X:X=X=X=X=Xn.A G V 9 5 9 r h.q 9 q 9 9 9 :.Z.y.=.> : q L.:X:X>X>X>X:X>X:X:X:X{.x.2.b.#X:X:X:X:X",
":X:X:X:X=X,X:X:X).M Z T 5 9 9 9 e 9 9 9 9 5 $.Z.Z.y.Q > z 9 e h.>X:X:X:X:X,X:X:X+Xv.}.:X{.x.:X:X:X:X",
"=X*X*X*X%X%X%X%X!.M Z B 9 5 9 9 9 9 9 9 4 5 >.Z.Z.r.2.< ,.l 9 q i.`.~.B.D.D.F. XC.].,X=X,XC.[.:X>X:X",
" X X X X X X X X|. .m N 4 9 9 9 9 9 9 3 5 y Z.Z.y.1.T r.y.a.q q q e f q.u.u.u.v.b.F.&X#X%XB.].=X:X:X",
"*X%X%X#X%X%X%X%X&X).C B 4 4 5 5 9 5 4 3 9 g Z.,.*.1.1.r.y.A.#.9 9 9 h 8.9.9.9.8.C. X&X#X'.t.}. X X#X",
",X,X,X>X,X,X,X,X>X>X~.C u 3 4 4 4 4 c l 9 %.,.s , ~ r.y.Z.Z.s.9 9 9 d 8.9.9.q.t.:X>X>X+XB.+X:X:X=X=X",
">X>X:X:X%X=X%X&X%X%X%X~.| 4 4 4 4 c ).9 7 i > > > s y.Z.Z.y.S.l 9 q 9 *.8.u.t.+X>X>X>X>X>X>X>X>X>X>X",
"%X%X#X#X*X+X&X&X%X#X&X#X#XL.i.i.j.}.f.> > > > > s ,.y.y.Z.Z.Z.a.9 9 9 y c.'.:X>X>X>X>X>X>X>X>X>X>X>X",
" X#X#X#X@XOX~.{.+.O.n...P +./ o.E.+X^ > > > , =.s.y.Z.Z.Z.Z.Z.S.L.h.W.&X#X%X&X=X:X:X:X:X;X=X:X:X:X=X",
"%X%X%X%X=X/.P H L F D G F D G F S [ p u 8 8 :.Z.Z.Z.Z.Z.Z.Z.Z.S._.=X%X#X#X#X#X#X#X#X%X#X#X#X#X#X#X#X",
",X7X7X7X5XE.o.A Z A H G D A G A a d y 9 5 9 g Z.Z.Z.Z.Z.Z.Z.Z.A.oX7X7X7X5X5X>X>X:X:X:X=X=X%X#X#X#X#X",
"7X7X7X7X7X;X+.F H H F Z D H F A 5 4 q 9 9 9 5 ;.Z.Z.Z.Z.Z.Z.Z.A..X7X7X7X7X7X7X7X5X7X7X7X7X,X,X,X,X,X",
">X,X>X>X>X>X>X).n.C D G G D i w 9 3 9 9 9 9 9 9 >.Z.Z.y.Z.Z.Z.%.W.=X:X:X>X>X7X7X8X5X8X7X7X6X7X7X7X7X",
"%X=X=X%X=X=X:X>X;X>X).T...C p 4 4 5 9 9 9 9 9 9 q $.>.y.y.>.g e OX=X=X=X=X:X%X:X:X>X>X>X7X7X7X7X,X7X",
":X:X>X7X7X8X8X8XqX5XqX5X5X8XXXh.6 4 5 9 9 9 9 9 9 9 9 9 9 9 q &.7X>X:X=X=X%X=X%X=X=X=X=X=X:X:X:X>X>X",
"7X8X8X8X8X8X8X8XqX5X8X8X8X8X8X8X6XXXK.q 9 9 q q 9 9 9 6 5 9 q P.8X8X8X8X5X>X:X:X=X=X=X=X=X=X:X:X=X:X",
"8X8X8X8X8X8X8X8X8XqX8X8X8X8X8X8X8X8XK.O 0 0 d.XXXX-X7XJ.Q d ` XX5X8X8X8X5X8X8X8X8X5X8X7X8X7X8X5X8X7X",
"4X,X>X>X>X>X>X>X>X>X>X;X>X:X:X:X:X:X~.; ; x $X:X>X>X:X).5.7.C.>X5X>X>X>X5X>X>X>X>X5X5X5X5X5X5X7X7X7X",
":X:X:X:X:X=X:X:X:X:X:X:X:X:X:X:X:X;X~., f.oX>X>X>X>X>X~.6.6.Q.;X%X).Q.^.`.:X:X>X:X:X:X:X:X:X:X:X:X:X",
":X:X>X:X:X:X>X:X>X:X>X>X>X5X5X7X8X7XL.; -XqXwXwX0X~.z.z.6.5.' ~ ~ 1.<.4.r.0X;X;X:X:X:X:X:X:X:X=X:X:X",
"wX9XwXwXwXwX9XwXwXwXwXwXwXwXwXwXwXwXd.X.wXwXwXqX0Xl.6.6.5.5.w.w.7.6.z.V.4XrX0X5X>X:X:X:X:X:X=X:X=X=X",
"wXwXwXwXwXwXwXwXwXwXwXwXwXwXwXwXwX0X< (.wXwXwXqX4X.XR.~.~.W.n.<.3.3.).rX3X3X2XwXwXwX9X8X7X7X,X>X,X:X",
"wXwXwXwXwXwXwXwXwXwXwXwXwXwXwXwXwX4XX.5X8XwX8X8XwX7X8X8X8X7X5X=Xm.{ T.1X2X7X,X7X7X7X7X7X7X7X7X7X8X8X",
"8X7X7X7X7X7X7X7X7X7X7X7X,X7X7X,X7X7X,X7X7X7X,X7X,X7X,X,X7X7X,X,X7X>X7X7X,X7X7X7X7X7X7X,X7X,X7X7X,X7X",
"8X7X8X7X8X8X8X8X8X8X8X8X8X9X9X9X9XwXwXwXwXwXwXwXwXwX9X9X9X8X8X7X7X8X8X7X7X7X7X7X7X7X7X7X,X7X,X,X,X,X"
};
