/* XPM */
static char *ecf529bfa55b4b04b1290ee4345cf8a2umQJOLMbc4FYj4iC[] = {
/* columns rows colors chars-per-pixel */
"50 50 96 2 ",
"   c #E5A924",
".  c #E6AE29",
"X  c #E6B22D",
"o  c #E6AB30",
"O  c #E6AD3B",
"+  c #E7B631",
"@  c #E7B934",
"#  c #E8BB36",
"$  c #E8BE39",
"%  c #E9C33D",
"&  c #E6AF42",
"*  c #E7B04A",
"=  c #E7B353",
"-  c #E8B660",
";  c #E9B865",
":  c #EABE76",
">  c #E9C740",
",  c #EACC44",
"<  c #EBD047",
"1  c #EBD04B",
"2  c #EBCF5C",
"3  c #ECD054",
"4  c #ECD15C",
"5  c #ECCF6D",
"6  c #ECD165",
"7  c #ECD16E",
"8  c #EAC07D",
"9  c #EDCE7E",
"0  c #EDD175",
"q  c #EDD27A",
"w  c #EBC587",
"e  c #EECF84",
"r  c #ECC68B",
"t  c #EDCD8C",
"y  c #EFD086",
"u  c #EDCA93",
"i  c #EECE9B",
"p  c #F0CF97",
"a  c #F0CF9E",
"s  c #EED093",
"d  c #EED096",
"f  c #EED09C",
"g  c #EFD09F",
"h  c #F0D69C",
"j  c #EFCFA0",
"k  c #F0CFA0",
"l  c #F0CFA1",
"z  c #F0CFA2",
"x  c #F1CFA2",
"c  c #EFD3A1",
"v  c #EFD2A3",
"b  c #EED3A5",
"n  c #EFD4A7",
"m  c #EFD4A8",
"M  c #EFD6AA",
"N  c #EFD6AB",
"B  c #EFD8AF",
"V  c #F0D0A1",
"C  c #F0D0A2",
"Z  c #F0D3A7",
"A  c #F0D4A5",
"S  c #F0D5A5",
"D  c #F1D3AA",
"F  c #F1D6AA",
"G  c #F1D6AD",
"H  c #F1D7AD",
"J  c #F1D7AF",
"K  c #F2D8AD",
"L  c #F1D8AF",
"P  c #F2D8AF",
"I  c #F0D8B0",
"U  c #F1D8B1",
"Y  c #F0D9B1",
"T  c #F0D9B2",
"R  c #F1DAB3",
"E  c #F1DBB3",
"W  c #F2D9B4",
"Q  c #F1DBB5",
"!  c #F2DAB5",
"~  c #F2DBB6",
"^  c #F1DCB7",
"/  c #F3DCB9",
"(  c #F1DDBA",
")  c #F4DCB8",
"_  c #F2DEBC",
"`  c #F3DEBC",
"'  c #F2DFBE",
"]  c #F3DFBE",
"[  c #F4E0BF",
"{  c #F4E2C3",
"}  c #F5E5CB",
"|  c #F6E8CF",
" . c #F6E9D3",
".. c #F8EBD7",
"X. c #F7EDDB",
"o. c #F8EDDB",
/* pixels */
"u u u u u u u r u u r r u u u u r u u u r u u u r u u u r u u u r u u u r u u u u u u r u u u u u x ",
"u u r u u u u u u u u u u u u r u u u r u u u u u u u u u u u u u u u u u u u u r u u u u u u r u x ",
"u u u u u r u u r u u u u u u u u r u u u r u u u r u r r u u u u u u u r u u u u u u u u r u u r x ",
"r u u u u u u r u u u u u r u u u u u u u u u r u u u u u u u u u u u u u u u r u u u r u u u r u x ",
"u u u u u u u u u u u u u u u u u r u r u u u u u u u u u u u u u u u u u u u u i i u x i i u i i D ",
"j x i x x a i i i i i u u i u u u i u u u u u u u u u u u u u x i i i i a a j x i x j i a i a a x D ",
"x i a a a a x a a a a a a a h a x x i i x i x x x x x x j x x x h i f f a i C h x x x x a x a a x j ",
"a a a a a a a a a a a a a a f c x x x i x x i i i i u u u j u r s u u u u u u u r u i u u a a a j z ",
"i i i i i i i j i j f u u f u d u u u u u u u u r u u u u u u u u u u u u u p u u u u u u u u u u D ",
"u u u u u u u u u u u u u u u u s s u u s d u u i i u a i i i x x j m x x n C C j x m x j x A i i D ",
"c i i j x i j h i h f f i i i i f i i i f f d s u u p p x j A x x x x x j x x x D j x j x n x x z D ",
"x j x x z z z j x C C C x x A C i y 0 6 3 1 < < , 1 1 1 , 3 6 0 e p j h C C x x j x j i i p p h i j ",
"j z x j x j c x x x h i i t 0 3 < < < , > % # # % # # # % % , 1 < < 3 0 t u d f p u u i f u d u i z ",
"z z j x z a i i i u u q 2 1 < , % +   X + $ % % % % % % @ + . X @ % , < < 4 y f p i h u u u u d u D ",
"p u u u p u u u u e 4 1 < % @ . @ % , < < < < < , < < < < < , , % @   X % < 1 4 i F D n M c C i i G ",
"D n A c c c c j 0 < < % +   $ , < < < < < < < < < < < < < < < 1 < < , % X @ % < , q M F F M N F G ( ",
"M M D F F F S 6 < < %   # < < < < < < < < < < < > > < < < < < < < < < < < #   % < < 6 h F n n A F U ",
"i c i x c S 6 < < @   % < < < < < > < < < < , .       % < < < < % < < < < < %   + < , 4 u p i i i n ",
"i i i i i 7 < < @   > < < < < , @   X % < < %         % < < % X   + , < < < < ,   # < < 0 K I G M I ",
"p u p h y > < %   % < < < < < < %       X > , % + + % , , +       % < < < < < < %   % < < h I G G / ",
"M c n j 7 < < . X < < < < < < < < , #       # > < < , #       # < < < < < < < < < + . < < 0 K I I ) ",
"G F F F < < >   % < < < < < < , % % < , X       X +       + > < % % , < < < < < , %   , < < K K U ) ",
"i i i u < < %   > < < < < < +       X , < X X , < < ,   + < , X       + < < < < < >   % < < h c C I ",
"f C i t < < %   > < < < < < X         , < @ X , < < < X + < ,         + < < < < < >   % < < f S h F ",
"( Q ( c > < >   % < < < < < < % # # , < #     . + # X     # < > % + % , < < < < < %   % 1 , C ^ ( ] ",
"Q Q Q n > < , . + < < < < < < < < < % X     X % > % % X     X % < < < < < < < < < #   < < > S Q ) ( ",
"I N M u @ < < %   % < < < < < < , +     . % < > % # > < % .     + > < < < < < < ,   % , < + A ( Q ` ",
"c c j u   > < , X X < < < < < ,       # , < %         % < < #       , < < < < , X X < < >   i F D ( ",
"( ^ ^ S   X , < , X X , < < < < , % , < < < %         % < < < > % , < < < < , .   , < , .   u S D Q ",
"( ( ( I     X , < , X   % < < < < < < < < < < , % % , < < < < < < < < < < %   + < < , X     Q ( ( ( ",
"^ ^ B M *     X , < < % X + % < < < < < < < < < , < < < < < < < < < < , + . % < < > X     = ] ( ( ) ",
"n h M C 8         # < < , #   X % , < < < < < < < < < < < < < < , $ X   % , < , %         r I I I ] ",
"M G M M D *           $ 1 1 1 % @ X . @ % % % , , , , % % % + X   # % < 1 , % .         & i m m c ] ",
"{ { { { { G o             @ , , < < , % # + + X X X X @ + # % , < < < % # .           . u M n n S ^ ",
"{ { { { { { j o               . # % % , < < < < < < < < < < < % % @ X                 j { { ] ] { ( ",
"` Q U U T T N i O                       X + + # # # # + + X                       & F { { { } { { ] ",
"G U G U W ( ] ] / :   .                                                         ; M ( ] ] { { { { { ",
"` { { { { } } } { } N =                                                     = u U U G G N G U G K { ",
"} } } } } } } } } } } } U : o                                           8 F { { { { { { { { { { { | ",
"{ ` ] ] ] ] ( ( ] / ] ( ( ( ( u : =                             = 8 u ^ [ [ [ { { ] { { { { } } } { ",
"[ Q I I U N ] G W W ^ T T ^ T ^ I ^ K c u u r r r r r r u u h K E K K E ^ I ^ I W W T Q T Q T Q ^ ( ",
"{ { [ ` ] Q { ] ( / ] ] { { } { } } | |  . . . .| .... .....| } { [ [ ) E I I K U T T T T T Q U I { ",
" . . . . . . . . . .X. . . . . . . . ... . . . ... ..... . . . ... . . .} { { [ Q Q T T T T T Q I { ",
" . . . .X. .X. .X. . . . . . .X. . . . . . .|  .| | | | | | | | | } } } | | } } } } } { { { { { { { ",
"| } } } } } } } } } } { { { { { { { { { { { { { { { { [ [ { { { [ { { [ [ { [ { { [ [ { { { { { { { ",
"{ { { { { { { { { { { } } } } } } } | } } | } } } } } { { { { { { { { { { { { [ [ { [ [ ] ] { ` { { ",
"X.X.o.o.o.o.X.X.o.o.o.o.o...X.X.X.X.X.X.X.X.X..... . . . . . . .|  . . .|  . .| | | | } } } } { { { ",
"X...X...o. .X.X.o.o....... . . . . . . . ... .| .. . . . . . . . . . . . . . . . . . . .|  . . . . .",
".... . . . .| .. . . . . .|  . . . ..... ... . ... . ... . . . . . . . . . . . . . . . . . . . . .| ",
"......X.X.X.X...X.X.X.X.X.X.o.X.o.X.X.X.X.X.X.X.o.X.X.X.X.X...X.o.....o...o.o...o...............o.} "
};
