/* XPM */
static char *_88917acf4334fe7f0b1e67325339bd2jQnhcIRno1h8yOTl[] = {
/* columns rows colors chars-per-pixel */
"50 50 212 2 ",
"   c #020100",
".  c #0B0501",
"X  c #0D0902",
"o  c #140C03",
"O  c #150B05",
"+  c #161104",
"@  c #1B1605",
"#  c #1F1A07",
"$  c #1A1710",
"%  c #221406",
"&  c #211B07",
"*  c #21160F",
"=  c #231E08",
"-  c #27220A",
";  c #2C250C",
":  c #2F290E",
">  c #322B0F",
",  c #352D11",
"<  c #3A2E16",
"1  c #3B3313",
"2  c #393215",
"3  c #322B26",
"4  c #3A322A",
"5  c #433916",
"6  c #423A16",
"7  c #453D18",
"8  c #4B3D25",
"9  c #47401C",
"0  c #4C431B",
"q  c #5A4B17",
"w  c #5E4E16",
"e  c #51461D",
"r  c #534A1F",
"t  c #68591F",
"y  c #7A661C",
"u  c #4F4621",
"i  c #514325",
"p  c #564C21",
"a  c #594F22",
"s  c #5C5323",
"d  c #5C512B",
"f  c #564B37",
"g  c #615625",
"h  c #645A26",
"j  c #6C5E24",
"k  c #61552D",
"l  c #675C29",
"z  c #695E29",
"x  c #665A31",
"c  c #6A5E34",
"v  c #6E6025",
"b  c #6D622B",
"n  c #736324",
"m  c #7A6721",
"M  c #7B6B27",
"N  c #71652C",
"B  c #76692E",
"V  c #6D6133",
"C  c #726634",
"Z  c #76693B",
"A  c #796B38",
"S  c #594D45",
"D  c #7A6B45",
"F  c #7E7041",
"G  c #96780A",
"H  c #9D7D0B",
"J  c #846C16",
"K  c #8A7117",
"L  c #8B731E",
"P  c #967914",
"I  c #987B16",
"U  c #846F21",
"Y  c #877226",
"T  c #967C23",
"R  c #8B753A",
"E  c #857647",
"W  c #84744B",
"Q  c #937D4B",
"!  c #887755",
"~  c #8A7951",
"^  c #9F8115",
"/  c #A68406",
"(  c #AC8A06",
")  c #A6850A",
"_  c #AC8A0A",
"`  c #B38E06",
"'  c #B38F0F",
"]  c #BC9505",
"[  c #BA9409",
"{  c #AA8918",
"}  c #B18D12",
"|  c #B18E1C",
" . c #B59217",
".. c #9E8425",
"X. c #A78724",
"o. c #BA9628",
"O. c #AC8E3A",
"+. c #B08F30",
"@. c #BB993B",
"#. c #C49C05",
"$. c #C39C0B",
"%. c #C9A108",
"&. c #D5AA05",
"*. c #DEB204",
"=. c #C9A21C",
"-. c #C39E2F",
";. c #CCA639",
":. c #D1AA35",
">. c #96824D",
",. c #938154",
"<. c #97855B",
"1. c #A98D47",
"2. c #B89947",
"3. c #A58E5A",
"4. c #BC9F5D",
"5. c #9A8865",
"6. c #A28D61",
"7. c #AD9667",
"8. c #A5916B",
"9. c #AB956D",
"0. c #B59C65",
"q. c #B29B6A",
"w. c #AA9774",
"e. c #B49C72",
"r. c #BEA268",
"t. c #BCA372",
"y. c #B4A17A",
"u. c #BDA57B",
"i. c #C19F4F",
"p. c #C5A347",
"a. c #C3A353",
"s. c #C9A757",
"d. c #D3AF55",
"f. c #D8B458",
"g. c #C6A868",
"h. c #CFB16E",
"j. c #D2B26B",
"k. c #C5AA75",
"l. c #C7AB75",
"z. c #C0A67C",
"x. c #C3AB7C",
"c. c #CCB076",
"v. c #CCB17C",
"b. c #D2B67C",
"n. c #D8BA79",
"m. c #BAA88A",
"M. c #BCAE95",
"N. c #C3AC82",
"B. c #CAAF82",
"V. c #C3AD89",
"C. c #CEB484",
"Z. c #CCB58A",
"A. c #D1B584",
"S. c #DABC81",
"D. c #D7BA89",
"F. c #D4BA8C",
"G. c #C7B696",
"H. c #D3BC94",
"J. c #D9BD91",
"K. c #D2BC99",
"L. c #DEC08B",
"P. c #DAC195",
"I. c #D5C099",
"U. c #DBC49C",
"Y. c #E1C38E",
"T. c #E3C594",
"R. c #E4C895",
"E. c #EDCA93",
"W. c #E2C79A",
"Q. c #E4C99B",
"!. c #EECE99",
"~. c #EDCD9A",
"^. c #EECD9D",
"/. c #F0CE9B",
"(. c #F0CF9D",
"). c #F0CE9F",
"_. c #EED09E",
"`. c #DAC5A1",
"'. c #DFC9A3",
"]. c #DACAAE",
"[. c #D7CAB4",
"{. c #E3CBA3",
"}. c #E8CFA3",
"|. c #E2CFAC",
" X c #F1CFA2",
".X c #EFD0A2",
"XX c #EED3A4",
"oX c #E7D2AE",
"OX c #EED5AB",
"+X c #F0D0A1",
"@X c #F0D3A5",
"#X c #F0D6AB",
"$X c #F1D8AF",
"%X c #E5D2B3",
"&X c #ECD5B1",
"*X c #EED9B5",
"=X c #E4D3B9",
"-X c #EBD9BC",
";X c #F1D6B2",
":X c #F1DAB4",
">X c #F2DEBB",
",X c #F3E0BE",
"<X c #F3DFC0",
"1X c #EEE1CB",
"2X c #F5E2C3",
"3X c #F5E5CB",
"4X c #F7E8CF",
"5X c #F4E7D1",
"6X c #F6EAD4",
"7X c #F7EDD9",
"8X c #F8EFDF",
"9X c #FAF3E8",
/* pixels */
";X.X+X+X+X+X+X+X_.).+X+X+X+X).+X X^. X+X^. X X). X XE. X X). X X/.+X X X X+X X X X). X+X/.(.+X^.+X;X",
"E.E.E.E.E.E.E.E.E.E.E.E.E.E.E.Y.E.E.E.E.E.E.E.E.E.T.E.E.E.E.E.T.E.E.E.E.E.E.T.E.E.E.E.E.E.E.E.E.E.E.",
"E.E.E.E.E.E.E.E.E.E.E.E.E.E.E.E.E.E.E.E.E.E.E.E.E.E.E.E.E.E.E.E.T.E.E.E.E.E.E.E.E.E.E.E.E.E.E.E.E.E.",
"E.E.E.E.E.E.E.E.E.E.E.E.E.E.E.E.E.E.E.E.E.E.E.E.E.E.E.E.E.E.E.E.E.E.E.E.E.E.E.E.E.E.~.E.!././._.~./.",
"+X(.(.(.~.^.~./.~.~.E.E.~.E.E.E.E.E.E.E.E.E.E.E.E.E.E.).E.E./.E.E././.^._.).~.). X).(.(.(.(.+X(. X(.",
"(.(.(.(.^.^.).).).).(.(.(.^._.^./.E.). X).).). X/.).).).E./.).).).).^.^.~.^._.).).)./.~.(.+X(.(.)./.",
"(.+X(.(.).).).).).).(.).^.^.~.~.~.E.W.^.T.T.T.J.J.A.A.B.D.D.z.B.C.B.e.e.t.C.E.E.E.(.E.~./.(._.E././.",
"~.).~.).).~.).^.).).R.F.C.C.C.u.w.8.! ! D ! W D f c A A A c 8 k k 8 < < e Z 7.D.E.E.~./.~.!.E.E.E.E.",
"E.E.~.E.E.~.E.E.E.b.q.W V V N p < % % % & 5 p 0 : , r z b b s 5 r 7 1 o O ; d 6.C.+X/.).).(._._._.~.",
"_._.~._.~.~./.~.C.~ k 5 1 e b l g 7 % o o o > 0 a 5 : e a z b p , 1 e 7 , ; < d ! e.J.^.+X+X(./.+X(.",
"+X(.(.(. X X XJ.~ 0 #     @ 1 s g h 7 1 1 5 1 7 g g a e p p h s p a h b g g g h z A ,.w.~.^._./.).(.",
"+X+X(.@X X X^.6.i @         X , 0 j s a g h l V b N B N b l h b h z z n j l z Z Z W W <.T.E.E./.E.~.",
"@X+X+X+X+X).m.N : - ; > 1 0 h N N M M b U Y Y Y U U J J K J q g t q h W 9.B.D.J.J.Y.Y.T.E.E.~.E.~.E.",
"/.)./.~.~.z.W z h b b B j j L P I I ' _ $.#.[ } ) ` [ #.#.] J t L ] -.i.g.n.A.D.Q.(. X X_._._.~./.~.",
"/.E.(.E.E.9.s J K ' G ) ) H ( ( / ( ( #.#.] ` ` H H #.#.*.&.( y I _ _ #.H ' } | @.Q ! w.K.OX@X#X#X.X",
"+X@X@XXX@XZ.C z h n y y L P G H ` H H / #.#.] #.] ( ( H G H K m z ^ I L T I U n z h h h F Q.#X@X#X#X",
"@X#X#X#X@XU.F 5 7 0 s h b n n L K J G G _ [ } P L y y m j n n b b b s v g s r 0 1 1 1 p ,.^.+XXXXXXX",
"_._.(.(..XW.E ;     X : l b s s g g h j y n s s h s s B s s b N N p - # 0 r         X u <.).).@X@X_.",
"/.E./.~._.Y.,.7     # : s s ; - 1 7 s z h r 0 5 1 , r b ; @ s b V 9   # e 5         X s 9.XX#X$X#X#X",
"~._.~.~.~.E.<.r   X 2 s s p 5 #   O e N s > o .   X r s @ + s b i <   # 0 1         o x m.$X$X$X$X$X",
"@X@X@X#X#XXX5.h 9 2 5 r r s s 1   + 0 b s -       + p s +   p b d 4 $ # 0 :         @ c H.;X;X$X$X$X",
"#X@X@X#XOXXX9.B b b h p s r , @   @ p B g -       o r 9   @ p b S S 3 - s :         ; W {.OX#X;X$X$X",
"_.~._._.E._.y.b : 1 r r s s z p e 7 a b p @   .   + s 9 X   : 9 f S 3 > s :         7 ~ Q.@X@X.X@X@X",
"~._.~.~._.^.x.B %     X 0 7 2 5 h B N z s @       @ l 9       X $ * X 2 h ; . X     0 5.&X:X$X#XXX~.",
"&X$X$X#X#X#XU.h ,     X s p @     , h B r @ .   . # z 5             X 2 a = X + & = b y.:X:X>X:X:X:X",
":X:X:X:X:X:XoXV 0 - o . s 0 @     - h N r @ .     = l 1             o 9 s 2 1 0 a a b m.>X:X:X:X:X:X",
"$X#X#X#X#X$X#X<.A l 0 6 s r #     ; h b 0 + .     ; b 1 X @ # ; 1 5 0 s Z A A W <.8.w.U.:X:X:X>X:X:X",
"XXXX@X_.+X+X^.P.m.e.,.Z C h e , # ; g h 7 X   X # 5 N p 0 p 0 s V F ,.8.t.u.C.C.I.'.#X#X$X$X$X$X:X$X",
"$XOXOX&XOX$X&X$XOXQ.u.3.>.W Z g h w v g r 1 0 a s b N C D 5.w.m.I.I.I.'.XXXXXXOX.XOXXXXXXXXXXXXX@XXX",
">X>X,X-X:X:X:X:X:X&XoXU.V.m.y.>...^ { ) Y Y L L ....R 9.G.oX%X&X*X>X*X*X-X>X*X*X:X:X:X:X:X$X$X:X$X:X",
":X:X&XF.c.Q.XXU.XXOXOXXXQ.v.l.2.%._ #.$. .| | o.t.t.u.F.U.OXOX*X:X>X>X,X>X,X>X>X>X>X>X>X>X:X>X>X>X>X",
"#XOXXXu.R t.u.j.Q.Q.Y.R.P.g.@.^ ] &.} { { o.=.[ h.Z.r.r.l.U.XX.XXXXXOX*X*X*X>X>X>X:X>X>X>X>X:X>X>X>X",
".XXXXXP.t.4.C.T.n.k.D.J.g.2.o.| | $.=.=.+.o.@.X.;.g.Z.U.{.{.XX#XXXXXXXXX#XXX#X#X#X#X#X#XOXOX#XOXOXOX",
"*X:X:X,X:X:X*XoXy.q.Z.D.s.N.I.k.8.O.o.X.>.q.c.p.V.3.r.|.2X2X<X>X:X;X:X#X#X#X#X#X@X#X#X#XXXXXXXXXXXXX",
"2X2X,X2X2X2X2X2X<X-XK.0.C.H.J.;.P.D.a.s.F.P.Z.4.K.V.`.,X>X<X2X2X<X2X<X2X2X<X>X>X>X>X:X:X:X:X:X;X$X$X",
",X,X,X,X>X2X>X<X<X>X{.c.c.P.S.f.oX'.C.h.C.U.P.2.1.k.{.:X;X:X:X:X>X>X>X<X<X<X2X2X2X2X2X<X<X>X2X<X2X,X",
":X:X$X:X:X>X-X>X>X>X&X{.{.R.j.d.L.n.k.g.r.P.I.2.+.0.&X>X:X:X:XOX;X$X;X:X:X>X>X>X>X<X<X2X2X2X2X<X2X2X",
"$X:X:X>X>X>X<X2X2XoXS.n.h.s.:.g.r.C.u.@.i.j.I.w.R 1.].3X2X2X>X-X:X$X#X#X;X#X:X;X:X:X:X:X>X:X>X>X>X,X",
"2X2X2X3X3X3X3X<X3X=XI.I.D.d.p.U.].c.C.I.a.a.U.=X`.K.-X1X3X3X3X3X2X<X>X>X:X:X:X:X:X$X:X:X:X:X:X>X:X:X",
"3X2X3X3X3X3X3X3X3X3X<X|.Z.d.p.n.I.P.I.-X|.L.b.|.H.b.G.G.=X3X3X2X3X3X3X3X3X<X2X2X2X2X2X2X2X2X2X<X2X2X",
",X,X,X>X>X>X>X>X:X>X:XR.n.U.I.u.I.n.s.`.&X'.j.a.K.q.;.;.s.G.|.*X>X>X>X,X>X,X,X,X<X<X>X2X2X2X2X2X2X3X",
":X$X$X:X$X:X:X:X:X:X:X*X*X*X:X>X*XU.Z.F.s.b.I.L.U.U.h.1.X.o.O.V.&X:X$X$X$X$X:X:X:X:X:X:X:X:X:X:X*X>X",
",X,X>X>X>X>X>X>X>X>X,X,X,X2X2X3X3XZ.4.1.p.d.I.G.K.-Xk.2.O.0.m.[.,X,X>X:X:X:X:X:X:X:X$X:X:X:X:X:X:X$X",
"4X6X4X6X4X6X4X4X6X4X6X6X6X6X6X4X6XM.m.G.].[.1X6X6X1XM.m.M.=X3X6X4X6X4X4X3X3X,X,X>X>X>X:X:X:X:X:X:X:X",
"6X6X6X6X4X6X6X6X6X4X4X6X6X6X6X4X4X6X3X5X4X4X4X4X6X5X3X1X5X6X4X6X4X4X4X3X3X3X3X4X3X2X2X,X2X,X,X>X>X,X",
"4X4X4X4X4X4X4X4X4X4X4X3X4X3X3X4X3X2X3X2X2X3X2X2X2X3X3X2X2X2X2X2X2X2X2X2X2X2X2X2X2X2X2X2X2X2X2X2X3X2X",
"3X2X3X2X3X2X2X3X2X2X3X2X2X3X2X3X3X3X3X3X4X3X3X3X3X2X2X2X2X2X2X2X2X2X2X,X2X2X2X2X2X2X2X2X,X,X2X2X,X2X",
"6X6X6X6X6X7X6X7X7X7X7X7X7X7X7X7X7X7X7X7X7X7X7X7X7X6X6X4X6X3X5X3X4X4X4X4X3X4X3X3X3X3X3X3X2X2X2X2X2X,X",
"8X7X6X7X7X6X7X7X6X7X7X7X6X7X6X7X6X7X6X6X6X6X6X6X4X6X5X5X6X6X6X6X4X6X6X6X6X6X6X6X4X6X6X4X4X6X5X4X5X7X",
"9X8X8X8X8X8X8X8X8X8X8X8X8X8X8X8X8X8X8X8X9X7X8X9X8X8X9X7X7X9X8X8X8X8X8X8X8X8X8X8X8X8X8X8X8X8X8X8X8X9X"
};
