/* XPM */
static char *_dd950caae724c28ebcdfdc6c70da2aaIR3lNFRl4run7MnV[] = {
/* columns rows colors chars-per-pixel */
"50 50 79 1 ",
"  c #EDCA93",
". c #EFCE9A",
"X c #F0CF9E",
"o c #EFD09E",
"O c #EFCFA0",
"+ c #F1CFA1",
"@ c #EFD2A4",
"# c #EFD5A9",
"$ c #F1D0A2",
"% c #F0D2A2",
"& c #F0D3A3",
"* c #F0D3A6",
"= c #F0D4A6",
"- c #F0D6A9",
"; c #F0D5AA",
": c #F1D5AA",
"> c #F1D6AA",
", c #F0D7AC",
"< c #F2D7AC",
"1 c #F1D5AE",
"2 c #F1D5AF",
"3 c #F0D8AE",
"4 c #F0D9AF",
"5 c #F2D8AE",
"6 c #F2D8AF",
"7 c #F0D8B0",
"8 c #F0D9B0",
"9 c #F1D9B0",
"0 c #F1D8B1",
"q c #F1DAB2",
"w c #F0DAB3",
"e c #F1D9B5",
"r c #F0DBB5",
"t c #F2DAB4",
"y c #F2D8B6",
"u c #F1DCB6",
"i c #F2DCB7",
"p c #F2DAB9",
"a c #F3DBB9",
"s c #F2DBBA",
"d c #F1DCB8",
"f c #F1DDB8",
"g c #F2DEBB",
"h c #F3DCBC",
"j c #F3DCBD",
"k c #F3DDBE",
"l c #F2DEBE",
"z c #F4DEBC",
"x c #F4DDBE",
"c c #F5DCBF",
"v c #F4E0BF",
"b c #F3DFC1",
"n c #F4DFC0",
"m c #F4DFC1",
"M c #F2E0C3",
"N c #F5E1C2",
"B c #F4E0C3",
"V c #F4E1C3",
"C c #F6E1C3",
"Z c #F3E2C5",
"A c #F6E1C4",
"S c #F4E1C7",
"D c #F4E3C7",
"F c #F5E3C7",
"G c #F5E3C8",
"H c #F5E4CA",
"J c #F5E5CA",
"K c #F5E5CB",
"L c #F5E5CC",
"P c #F5E6CD",
"I c #F5E7CF",
"U c #F6E8CF",
"Y c #F5E7D0",
"T c #F6E9D3",
"R c #F8E9D4",
"E c #F7EDDA",
"W c #F8EFDF",
"Q c #F9F0DF",
"! c #F9F2E4",
/* pixels */
"S1+11111+:1:11+*1111++2222++2222+:1:11+@1111+1112m",
"e                                                e",
"e                                                y",
"e                                                y",
"e                                          . .  .s",
"j...     .                        ...Xo.  ..+.XX+s",
"jXXXXX+XXXXX....  X . X. ++++   .X.....X.$++.+..+y",
"jXXXXXXXXXXoo.oo ..+XX+.+  + +  .. .  .  . ....++m",
"jX.X........o... . o .o          .. .  . . . . . m",
"y   . .... .     .      .  ... ..X..oo....oooo.. y",
"s............. .... ....X.XX++++$$$$o$$$&$$$$&oo+e",
"c@++o$o$o+o+oooooooooo$$+++++++++++o$o++$$XXXXoo+c",
"c$++++++++ooX.o.o..o.O++++++++++oX+.o..oX..... . j",
"c+$$++XX.... ..  . .....O.+O++OOo@oXooooX.. .    j",
"h.X.....   ... o.........@OO#O**@@@@#@=:==oooooo.j",
"h.o.....ooooooooo@oo@@@#@###:#1#:#1:#:-=---==#=@*b",
"V::=##@#&##&@&@$ooooo$@@==-----==$##@o$@$$=@#@###V",
"h@@=$@@#@@oooo  ......ooo@$o:@@&ooo  ...o .oXoo@@h",
"fo .o.ooo.X  .XXo... .. .XX.o o X .Xo..o.ooo=&$=$v",
"qo.o ..  ooo&&=:$==o@$o.o .. X.X.oo======-::9<<<4S",
"cooo@o@@&=--14-<4444<<##@o@@$$@&=:4<9<9<144q<q4<4S",
"S:==@:##=-14::1-<<::==@@@@@@=---4:=<<9<<<<449<41<H",
"N@$@oo@o&o$&=#$-===&=oo......o@@@+*@*<<---<#<1:::V",
"hoo.o.o..ooo--<<qqqq4::@ooo.oo.o.@#::<<q11:::$:&@c",
"Z#::#=&@##*44rrrirerer444@@@####<qeiriiqiy9iqreq4S",
"Pree4eeeeeerreerie44441:#=##44qreerriiryiyzizirerH",
"Hq4441q4#44#<11:<:&@&oo@@@o@o@##1444<qe44iqiqirrrU",
"Z#@@$o@$o@@@=$o=$$@#$:##@#@@@@@o@@&@$==::<1qq<q-4F",
"Z####:#-########--4r3rerfreqq4#=-#==-=##&:&*####=V",
"Thffrvrqfqfwerrfrrffffffvrrrrrrfvrrvffefr944q4#4<D",
"Hrqfqq#1#########4qqq3q####@@#qqqrrffhffvccrfcrcfT",
"D4##@@##@@#@@#@@#@$:####3#####@@#:1rfrvrrffffffffH",
"Z###:---::===-###:444evzvvcvs41:#::#:::4##:-#####V",
"TreeirifvfzzfcvrhbvVVSVSVCCCbGcvrfqqq41:##==####:V",
"RVVVVVVSVVVvmVVvbbNNVvccfczzfbbNVVNZVCVVScfcrq4q1H",
"Rvvcfvccccvzcfzerww3<<<11<4:2q#3qrchcVmSSVVVSVVVSE",
"H4<<q9qerffreferqqfqq4q4efvfrrrq41<:4erfccVVVCCvZT",
"HiricDDDDHPDHHHHHDNZDDDDDHKHDHZNzeq44q1q4<99iiizfY",
"EHHHDHHDHPDHHHHHHZHDDHDDHDHHKHDDHHVvcrfririrry9afJ",
"ESSSDDZDZZZSDVVVvNZVvvvvVVVVDDDDSDSDDNGGDHSGHGGGJE",
"Urvrrrqrrerqreqe4v-4v4v4rfrrfrrf4vrq4v4vriirvvzvNP",
"UvqrvqvqeerfffrvvvvvvZHHPPPPPZZvrrrqq4q4944r9q44wJ",
"!TUKDDKKPHPPUTRRTTTTTTTTRTTTTTTTTUHDDvv4iqqqeqr93J",
"QTTTTTTTTTTTTTTTTTTTTTTTTTTTTTTYETTTTUUUHVVvrrrzfI",
"QTRRRTUUUUTUUUPUUUKHHHHUPHHDJZDDVCCCCCVCHVVDFFFFJT",
"EDVVVZVCSVVVVCCCvvDVVCVCSvCvMNZNVVCCVvvCvvCvZVvCZT",
"QUHUTUTTRTTTTERTEEEQTQEEETTUYYPPHHPPUHHHHVDVDvvvhT",
"!EQQEQEEQEQEETTQTETETTETTTTTTYTTTTRRTTTTTTTTUTTRPW",
"!RUTTTTTTTTTTTTTTTTTTTTUTTTTTTTTTTTTTTTTTTTTUTTUT!",
"!QQ!!QQQWWWWWWWWWWWWWWWWWWWWWWWWQQQQQQWQWWWWWWWW!!"
};
