/* XPM */
static char *b55a215d5af64dfcc1d5a6119c1c927buJLCVuVC1N3jyO6G[] = {
/* columns rows colors chars-per-pixel */
"50 50 145 2 ",
"   c #2D4F16",
".  c #2E5217",
"X  c #2F5018",
"o  c #305417",
"O  c #315519",
"+  c #335B19",
"@  c #36611B",
"#  c #39651C",
"$  c #3C6B1D",
"%  c #3F711F",
"&  c #355420",
"*  c #3A5522",
"=  c #40721F",
"-  c #425926",
";  c #455A29",
":  c #495C2C",
">  c #505F2F",
",  c #4D5F33",
"<  c #427520",
"1  c #437821",
"2  c #4E623A",
"3  c #5B6535",
"4  c #53633A",
"5  c #5C673B",
"6  c #5E693D",
"7  c #616A3E",
"8  c #6A6E3F",
"9  c #5A6741",
"0  c #646D43",
"q  c #646F4C",
"w  c #66704C",
"e  c #6C7249",
"r  c #747446",
"t  c #74764C",
"y  c #7A794C",
"u  c #6A7554",
"i  c #757953",
"p  c #7C7D55",
"a  c #747C5E",
"s  c #7A7E59",
"d  c #837E50",
"f  c #7D815F",
"g  c #858153",
"h  c #84835D",
"j  c #8B875D",
"k  c #948A5D",
"l  c #8F8A62",
"z  c #928C64",
"x  c #9C9165",
"c  c #93916F",
"v  c #9D946D",
"b  c #8A8D73",
"n  c #8E9176",
"m  c #9B9672",
"M  c #A39467",
"N  c #A4996F",
"B  c #AE9D6F",
"V  c #A19A75",
"C  c #AC9E72",
"Z  c #A69D78",
"A  c #ACA17B",
"S  c #B2A174",
"D  c #B4A67C",
"F  c #BAA57C",
"G  c #BDA97B",
"H  c #C2AC7C",
"J  c #C8AF7E",
"K  c #A4A083",
"L  c #B6AA86",
"P  c #BBAB81",
"I  c #B5AC8E",
"U  c #BBAE8B",
"Y  c #BCB194",
"T  c #B8B5A1",
"R  c #C3AD82",
"E  c #C4B184",
"W  c #CBB381",
"Q  c #C5B58F",
"!  c #C9B68D",
"~  c #CBB88C",
"^  c #D0B683",
"/  c #D2B887",
"(  c #D6BC8E",
")  c #DABE8B",
"_  c #C3B491",
"`  c #C9B993",
"'  c #C3B798",
"]  c #D4BF95",
"[  c #D0BF9C",
"{  c #C6BCA2",
"}  c #C8BFA5",
"|  c #DDC18D",
" . c #D9C395",
".. c #D3C19B",
"X. c #DBC59B",
"o. c #E1C38D",
"O. c #E3C592",
"+. c #E6C996",
"@. c #EDCB93",
"#. c #E6CA9D",
"$. c #EECE9A",
"%. c #F0CF9E",
"&. c #EED09D",
"*. c #D1C7AD",
"=. c #DCCCAC",
"-. c #CCC7B3",
";. c #DFCEB1",
":. c #DBD2BB",
">. c #E3CCA4",
",. c #E0CCA8",
"<. c #F1CFA2",
"1. c #EFD2A1",
"2. c #EED2A2",
"3. c #EAD0A4",
"4. c #EFD3A4",
"5. c #EFD4A6",
"6. c #E4D1AC",
"7. c #EDD3A8",
"8. c #EFD5A8",
"9. c #ECD4AB",
"0. c #EFD6AD",
"q. c #F0D0A1",
"w. c #F1D0A2",
"e. c #F0D3A5",
"r. c #F0D4A8",
"t. c #F0D5A9",
"y. c #F1D6AB",
"u. c #F1D6AD",
"i. c #F1D7AE",
"p. c #F1D8AF",
"a. c #F2D8AF",
"s. c #EED9B4",
"d. c #EDDABB",
"f. c #F3DAB2",
"g. c #F1DAB4",
"h. c #F2DDBB",
"j. c #F4E0BF",
"k. c #DAD2C0",
"l. c #F4DFC0",
"z. c #F5E2C4",
"x. c #F4E5CA",
"c. c #EFE7D6",
"v. c #F6E7D0",
"b. c #F6E9D3",
"n. c #F8EEDC",
/* pixels */
"@.@.@.@.@.@.@.o.@.@.@.@.@.@.o.@.@.@.@.@.@.@.@.@.@.@.@.@.@.@.@.J @.@.@.@.@.@.@.@.@.@.@.@.@.@.@.@.@.@.",
"@.@.@.@.@.@.@.@.@.@.@.@.@.@.@.@.@.@.@.@.@.@.@.@.@.@.@.@.@.@.@.@.@.@.@.@.@.@.@.@.@.@.@.@.@.@.@.@.@.@.",
"@.@.@.@.@.@.@.@.@.@.@.@.@.@.@.@.@.@.J @.@.@.@.@.@.@.@.@.@.@.@.@.@.@.@.@.@.@.@.@.@.@.@.@.$.@.$.$.%.%.",
"%.%.%.%.%.%.@.@.$.$.@.$.@.@.@.@.@.@.@.@.@.@.@.@.@.@.@.@.@.@.@.@.$.$.&.&.@.@.%.%.<.%.%.%.%.%.%.%.%.%.",
"%.%.%.%.%.%.%.%.&.&.&.&.%.%.%.%.@.%.%.%.%.%.%.%.%.%.%.%.%.%.%.%.&.&.&.$.&.&.&.%.<.%.%.%.%.%.&.%.%.<.",
"%.%.%.%.%.%.%.%.$.$.&.&.%.%.%.%.%.%.%.%.%.%.%.%.$.$.$.@.@.@.$.@.@.$.@.@.@.@.@.@.@.@.@.%.%.%.&.%.%.<.",
"%.%.%.%.%.%.%.%.$.$.$.$.@.$.%.@.@.@.@.@.@.@.@.@.@.@.@.@.@.@.@.@.@.@.$.@.@.@.@.@.%.@.@.@.@.@.@.@.@.%.",
"@.@.@.@.@.@.@.@.@.@.@.@.@.@.@.@.@.@.@.@.@.@.@.@.@.@.$.@.$.$.%.%.&.&.&.%.%.e.%.<.%.<.<.%.%.%.%.&.@.%.",
"%.%.%.$.&.&.@.$.&.$.@.@.%.@.$.%.$.$.$.@.k +.&.$.&.<.w.w.w.w.w.w.<.<.<.<.<.<.<.<.<.<.<.%.<.%.<.1.<.<.",
"<.<.w.%.<.<.w.1.%.w.w.5.&.&.w.&.<.1.w.<.y F <.<.w.w.w.w.w.w.<.W #.<.<.<.<.<.<.<.<.<.<.$.%.%.<.&.%.e.",
"<.<.<.<.w.<.w.( ( 1.w.&.$.&.) %.%.$.%.<.O 0 <.<.w.w.w.w.<.%.<.7 ( $.$.q.<.$.$.%.$.@.@.o.$.@.@.$.@.<.",
"<.<.<.<.w.$.&.+.: ) @.@.@.@.g ) @.@.$.@.  X ~ $.%.%.w.%.<.%.H X / $.$.$.$.$.$.@.@.@.y o.@.@.$.@.@.%.",
"$.$.$.@.@.$.$.@.r 3 o.@.$.@.d 0 @.@.$.@.    x $.$.4.1.e.1.1.7   ] 8.y.y.e.y.0.8.3.t 5 1.$.$.$.@.&.%.",
"$.$.@.$.$.$.@.&.B . r $.1.e.z . x 8.8.3.. X : 4.y.r.y.y.y.!     ] 0.9.y.y.y.9.0.h   v y.y.y.y.y.y.e.",
"e.y.y.e.5.y.5.e.X..   v 1.&.S . o E 1.#.  .   ! y.7.y.y.y.p      .5.e.$.1.4.1.x   . ! 4.0.0.r.y.y.y.",
"e.y.y.y.8.y.y.4.%.r O . H $.J . X : +.@.  @ X x y.r.e.y.X.  o   | $.@.$.$.$.B     : $.@.$.$.$.4.1.y.",
"$.$.$.$.$.$.$.@.%.G X # ; | (     . j $.  # + : @.%.@.%.M . @ . +.$.$.%.@.J   +   M $.$.$.4.4.<.$.5.",
"@.$.o.o.%.@.%.$.@.+.& $ + t 1.O   X o J . # $   ^ %.%.@.: + @   $.1.$.e. .; + +    .7.0.X.a.g.y.f.y.",
"%.$.+.3 | $.$.4.y.y.N + =   A h   # . 6 O + = . M %.%.E . $ + 5 y.y.f.9.e   < . i g.y.z ` a.a.a.p.f.",
"y.y.y.i 5 >.y.=.] f.X.  = @ X p   @ @   . + 1 . e e.y.l   = + h y.f.0.z o $ $   ` i.z X >.a.a.a.p.f.",
"%.4.4.C   0 $.$.O R e.d # 1 . X   . < o . + 1 @   O.+.O + 1 o z 4.4.P X + 1 + 6 y.v   t y.g.y.g.y.g.",
"$.$.$.(     t +.p   H R . 1 % . . . = $ . + 1 #   H G   # 1 . B $.] * O 1 =   L C     S 1.$.4.$.$.7.",
"1.1.$.$.7     z P     _ 9 # 1 +     $ = .   $ $   x g . = =   P 8.t . # 1 + : U       =.g.s.y.9.G ` ",
"g.g.g.g.L   +   V       0 + 1 < . . # = # . + <   0 X + 1 $   [ A   + 1 1 . s * o X s g.g.h.g.U X 6.",
"..h.g.g.6.O + @ . ,   . . . $ 1 #   + 1 1 . . $ O     @ 1 $ . L . . < 1 # . . . #   _ g.g.g.U   h h.",
"X R 5.w.4.z   < .     + O   @ 1 =   . 1 1 #   . @   . $ 1 # . 6 . $ 1 % . . . % + 4 s.g.g.Q   . _ h.",
"    C &.w.(   # %       % . . % 1 . . % 1 1 . . . .   < 1 @     O 1 1 #   . # % . C 4.5._ O . - 3.f.",
"      m g.g.s O 1 @     # % . . 1 @ . # 1 1 #   X X + 1 1 +     % 1 1 .   . < @ O #.4. .* + . V e.f.",
"& + . . m s.` . $ 1 O   . 1 # . + #   + 1 1 1 .     # 1 1 . . # 1 1 # . . % % . m d.,.4 + # O 6.h.g.",
"Z . # X . l 1.6 + 1 = . . # 1 +   + . O 1 1 1 @   . % 1 $   . 1 1 1 + . # 1 #   =.s.a . = O m h.h.h.",
"#.- @ #     j D . = 1 # . . 1 1 .       < 1 1 <     # 1 . . # 1 1 $ . o 1 1 . l g.c   $ $ . =.s.s.h.",
"4.Z   1 @     p * + 1 1 . . # 1 =       $ 1 1 1 @   + # . . 1 1 % . . % 1 $ . ~ D . # 1 O z 1.4.4.f.",
"h.d.4 + 1 + .       = 1 %   . 1 1 #     @ 1 1 1 %     . . # 1 1 + . @ 1 1 O w ... + 1 % .  .5.5.5.p.",
"z.z.Y O $ 1 O .     @ 1 1 @ . # 1 1 +   + 1 1 1 1 O     o 1 1 %   . < 1 % . I 9 . < 1 O n g.h.h.h.h.",
"g.h.h.0 + 1 < .     . = 1 = . . 1 1 %   . 1 1 1 1 $     # 1 < .   % 1 1 + * f   $ 1 $ . ;.z.z.z.z.j.",
"0.0.0.Q . $ < $       # 1 1 # . # 1 1 . . 1 1 1 1 < .   # 1 @   + 1 1 %   &   @ 1 1 O n l.z.z.z.z.z.",
"h.h.l.x.u X 1 1 @   . . 1 1 1 . . 1 1 o   $ 1 1 1 1 + . . <     % < < @     . < 1 $   [ f.f.f.g.s.j.",
"x.x.x.x.}   # 1 1 +     $ 1 1 #   $ 1 +   $ 1 1 1 1 % . . .   @ 1 1 < .     % 1 1 o s d.h.h.h.h.h.j.",
"x.x.x.l.x.q . 1 1 = . . + 1 1 =   . 1 #   @ 1 1 1 1 1 . .     < 1 1 #     + 1 1 $ . { x.x.x.x.x.z.x.",
"s.s.f.f.s.U   @ 1 1 #     1 1 1 +   $ # . + 1 1 1 1 1 +     @ 1 1 1 +   . < 1 1 + , s.h.h.h.l.h.j.j.",
"f.g.g.g.s.s.* . 1 1 1 + . # 1 1 $   + %   + 1 1 1 1 1 $     % 1 1 % . . # 1 1 %   V g.s.g.p.g.g.s.j.",
"x.v.x.v.x.x.K . # 1 1 # . . 1 1 < .   #     1 1 1 1 1 +   + 1 1 1 @   . 1 1 1 @   [ g.g.p.g.g.p.s.h.",
"b.b.b.b.b.b.:.. . 1 1 1   . 1 1 1 o   +     1 1 1 1 <     % 1 1 1 O . $ 1 1 < . 2 j.h.g.s.g.g.g.s.j.",
"b.b.b.b.b.b.c.q   # 1 1 . . # 1 1 @   .     1 1 1 1 @ . O 1 1 1 % . . 1 1 1 $   m z.z.x.x.x.x.x.x.z.",
"z.z.z.z.z.z.z.A   + 1 1 +   @ 1 1 %         < 1 1 1 .   $ 1 1 1 @ . $ 1 1 1 @   ' j.j.j.j.j.j.j.j.z.",
"x.x.x.x.v.v.v.*.  . 1 1 #   . 1 1 %         < 1 1 %     % 1 1 1 . . 1 1 1 1 .   =.z.j.j.j.j.j.j.j.z.",
"n.n.n.n.n.n.n.c.    % 1 #   . 1 1 1         % 1 1 #   . 1 1 1 $   @ 1 1 1 % . O b.b.v.v.b.v.v.x.x.x.",
"n.n.b.b.b.b.b.b.u   # 1 $ . . % 1 1 o       < 1 1 + . + 1 1 1 +   $ 1 1 1 $ . f b.b.b.b.b.b.b.b.b.b.",
"b.b.b.b.b.v.b.b.n . O # @ .   @ $ $ O     . $ $ $ X X + $ $ $     $ % % % +   b c.b.b.b.b.b.b.b.v.v.",
"n.n.n.n.n.n.n.n.k.Y T T T T T T T T T T T T T T T T T T T T T T T T Y T T T T -.n.n.n.b.n.n.n.n.n.b."
};
